<svg xmlns="http://www.w3.org/2000/svg" xmlns:xlink="http://www.w3.org/1999/xlink" xmlns:dc="http://purl.org/dc/elements/1.1/" xmlns:rdf="http://www.w3.org/1999/02/22-rdf-syntax-ns#" width="2342" height="2342" viewBox="0 0 200 200">
  <defs>
    <clipPath id="shield_532222558">
      <path d="M 100,12 176.2,56 176.2,144 100,188 23.8,144 23.8,56 Z"/>
    </clipPath>
    <clipPath id="division_532222558">
      <path d="m 0,115 v -30 c 0,0 60,20.2 100,20 40,-0.2 100,-20 100,-20 v 30 V200 H0 Z" transform="translate(161.66 10) rotate(66.66 -100 100) scale(-1 1)"/>
      <path d="m 0,115 v -30 c 0,0 60,20.2 100,20 40,-0.2 100,-20 100,-20 v 30 V200 H0 Z" transform="translate(38.33 10) rotate(-66.66 100 100)"/>
    </clipPath>
    <style>.secondary {
      fill: var(--secondary);
    }
    .tertiary {
      fill: var(--tertiary);
    }
    .pseudostroke {
      fill: var(--stroke);
    }
    .background {
      display: var(--background);
    }</style>
    <linearGradient id="luster" x1="0%" y1="100%" x2="95%" y2="10%">
      <stop stop-color="#000" stop-opacity=".3" offset="0"/>
      <stop stop-color="#ccc" stop-opacity="0" offset=".8"/>
      <stop stop-color="#fff" stop-opacity=".2" offset="1"/>
    </linearGradient>
    <pattern id="nourse" width=".25" height=".25" viewBox="0 0 26 26">
      <g fill="none" stroke="#000" stroke-width="1" opacity=".06">
        <path d="M26 1h-.2A25 25 0 001 26M25.2 26A25 25 0 000 1"/>
        <path d="M1 0v.2a25 25 0 0025 25"/>
        <path d="M0 25.2h.2A25 25 0 0025.2 0"/>
        <path stroke-width=".4" d="M10.5 10.6h5v5h-5z"/>
        <path stroke-width=".5" d="M11 10c0-3.2 4.1-3.2 4 0M15 16.2c0 3.4-4 3.3-4 0M16.2 11c3.2.2 3.1 4.3 0 4.1M9.9 15.1c-3.3 0-3.3-4 0-4"/>
        <g fill="#000" stroke="none">
          <circle cx="21.9" cy="19.7" r="1"/>
          <circle cx="20" cy="20.7" r="1"/>
          <circle cx="21.9" cy="21.9" r="1"/>
          <circle cx="5" cy="7.2" r="1"/>
          <circle cx="6.9" cy="6.1" r="1"/>
          <circle cx="5" cy="5" r="1"/>
          <circle cx="21.9" cy="4.9" r="1"/>
          <circle cx="20" cy="6" r="1"/>
          <circle cx="21.9" cy="7.1" r="1"/>
          <circle cx="4.9" cy="22" r="1"/>
          <circle cx="6.9" cy="20.9" r="1"/>
          <circle cx="4.9" cy="19.8" r="1"/>
          <circle cx="12" cy="14.2" r=".9"/>
          <circle cx="14.1" cy="14.2" r=".9"/>
          <circle cx="12" cy="12" r=".9"/>
          <circle cx="14.1" cy="12" r=".9"/>
          <circle cx="1.8" cy="13.1" r=".8"/>
          <circle cx=".9" cy="14.6" r=".8"/>
          <circle cx=".9" cy="11.6" r=".8"/>
          <circle cx="24.3" cy="13.1" r=".8"/>
          <circle cx="25.2" cy="14.6" r=".8"/>
          <circle cx="25.2" cy="11.6" r=".8"/>
          <circle cx="13" cy="24.3" r=".8"/>
          <circle cx="14.6" cy="25.1" r=".8"/>
          <circle cx="11.5" cy="25.1" r=".8"/>
          <circle cx="13" cy="1.8" r=".8"/>
          <circle cx="11.4" cy="1" r=".8"/>
          <circle cx="14.6" cy="1" r=".8"/>
        </g>
      </g>
    </pattern>
    <g id="hourglass" stroke-width=".51" author="Syryatsu" source="https://commons.wikimedia.org/wiki/File:Meuble_sablier_s%27%C3%A9coulant.svg" license="https://creativecommons.org/licenses/by-sa/3.0">
      <g>
        <path class="secondary" d="M89.26 67.27c-3.23 3.78-4.61 7.94-4.62 11.37 0 8.92 7.84 14.98 12.79 19.7.24.23.23 1.18.14 1.54v.1c.09.36.1 1.3-.14 1.53-4.95 4.73-12.8 10.79-12.79 19.7 0 3.44 1.39 7.6 4.62 11.37h21.57c3.23-3.78 4.62-7.93 4.62-11.37.01-8.91-7.84-14.97-12.79-19.7-.23-.23-.23-1.17-.14-1.53v-.1c-.09-.36-.1-1.3.14-1.54 4.95-4.72 12.8-10.78 12.79-19.7 0-3.43-1.39-7.59-4.62-11.37z"/>
        <g>
          <rect y="66.49" x="81.96" height="66.88" width="1.58"/>
          <rect y="66.49" x="116.56" height="66.88" width="1.58"/>
        </g>
      </g>
      <g>
        <g>
          <rect y="132.98" x="80.85" height="4.04" width="38.39"/>
          <path d="m78.32 135.54-.2.01h-.04l-.23.01a15.74 15.74 0 0 1-5.77 2.68v1.57h6.66v-.67h42.6v.67h6.67v-1.57a15.74 15.74 0 0 1-5.77-2.68h-.28c-.16-.02-.27-.03-.42 0h-43a1.14 1.14 0 0 0-.22-.02z"/>
          <rect y="138.29" x="72.08" height="1.51" width="55.92"/>
        </g>
        <g>
          <rect y="62.84" x="80.85" height="4.04" width="38.39"/>
          <path d="m78.32 64.32-.2-.02h-.27a15.74 15.74 0 0 0-5.77-2.68v-1.57h6.66v.66h42.6v-.66h6.67v1.57c-2.48.56-4.1 1.54-5.77 2.67l-.23.01h-.05c-.16.01-.27.02-.42 0h-43l-.22.02z"/>
          <rect y="60.05" x="72.08" height="1.51" width="55.92"/>
        </g>
      </g>
      <path class="tertiary" d="M91.31 90.56c1.33-1.85 3.5-1.72 5.33-1.31 1.89.4 2.84 1.2 4.78 1.4 2.68-.64 5.14-2.77 8.16-2.56-.4 3.67-5.17 7.44-7.81 9.6-1.04 2.29-1.7 8.08-.93 13.53.81 7.8 5.63 8.12 12.88 10.06.68 3.51-1.77 9.23-5.38 10.36-12.6-.76-16.32.86-19.01-1.02-1.23-1.6-3.16-4.27-2.94-6.42 7.28-5.83 11.53-4.55 13.31-14.46-.48-4.76.26-10.23-2.7-13.94-2.99-2.46-4.23-2.6-5.69-5.24z"/>
    </g>
    <g id="attire" stroke-width=".3" source="http://wappenwiki.org/images/9/9d/Regenstein_Ancient.svg" license="https://creativecommons.org/licenses/by-nc-sa/3.0">
      <path d="M91.4 134c-.53.07-1.3-.71-1.46-1.22a2.3 2.3 0 01.13-1.57c.2-.5.66-.97 1.15-1.16 1.3-.51 2.09.16 2.42.14 0 0 2.13-.57 3.49-3.6.59-1.3 4.23-6.22 5.35-8.03 2.65-4.28 4.55-12.2 4.75-13 .99-8.35-.31-11-3.3-15.5-.3-.5-1.05-1.18-2.93-3.34-.71-.81-3.7-3.4-5.66-4.11-3.36-1.54-3.72-.25-7.45-.37-4.5-.15-9.65-7.8-12.4-8.9-1.35-.55-2.94-.66-5.16.1-.44.16-.06-1.68 2.54-2.58 1.97-.68 4.03-.7 5.25-.25 2.5.9 4.83 4.16 8.09 5.66 1.73.8 4.44 1.1 6 .29 2.32-1.21 2.3-2.57 2.29-3.51-.18-3.03-4.72-4.24-4.65-8.85.03-1.62.82-3.22 1.48-3.71.46-.52.82-.43.85.23-.11 6.27 6.25 6.86 7.17 11.1.54 2.49.39 3.53.38 3.99.1.92 1.5 2.69 3.6 4.46 2.36 1.98 3.26 3.3 4.58 3.82 1.28.44 3.65-1.18 4.1-2.37 1.27-3.25-.78-6.7.93-11.1a8.05 8.05 0 014.6-4.43c.7-.23.82.34.49.79-.32.45-3.03 2.14-1.84 7.59.5 2.35 1.35 6.26.09 9.52-1.52 3.93-3.43 3.36-4.23 6.76-.1.83 2.2 5.87 1.84 8.5-.23 1.73-.15 4.19 1.49 4.44 2.77.4 5.15-2.1 6.03-4.52 1.05-2.87 1.77-5.95 4-7.75a7.33 7.33 0 013.88-1.75c.77-.06.68.38.42.65-.18.19-1.61 1.2-2.66 3.23-1.18 2.26-1.21 5.2-1.7 8.45-.88 4.78-5.3 7.47-7.77 7.86-2.18.34-4.08-.17-4.77 1.45a91 91 0 01-2.66 6.84c-.82 1.67.94 3.77 2.8 4.4 3.37 1.4 5.38-1.52 6.67-2.44 3.22-2.27 7.65-2.97 9.58-1.13 1.34 1.4.05 1.2-.42 1.17-4.25-.4-6.21 3.9-10.5 6.5a10 10 0 01-8.3.77c-1.22-.42-1.65-1.12-2.92-1.2-1.13-.05-1.83.9-3.1 2.55-1.34 1.73-2.91 3.66-3.38 4.3-.44.62-.81 1.3-1.06 2.02a.81.81 0 00-.07.4c.02.13.09.24.16.36.23.39.38.83.44 1.27.13.9-.11 1.89-.77 2.52-.66.63-1.61.8-2.41.36-1.01-.56-1.28-1.37-1.4-1.41 0 0-1.7-.31-2.53-1.04-1.3-1.01-1.97-2.22-1.54-3.65z"/>
      <g class="pseudostroke" stroke="none" fill="#000">
        <path d="M99.86 75.8c-.12.85-.4 1.74-.65 2.43.24-.86.32-1.68.38-2.45z"/>
        <path d="M94.3 133c-.86-.4-2.3.02-2.88 1.27l-.26-.13c.76-1.37 2.12-1.66 3.14-1.14-.01-.01 0 0 0 0z"/>
        <path d="M97.6 135c.82.88.7 2.13.02 2.99.32-.99.33-1.98-.02-2.99z"/>
        <path d="M111 99.3a37.6 37.6 0 01-.35 3.13c-.03.23-.05.46-.01.67.02.1.06.2.1.31.33.62.16 1.09-.09 1.73-.11.26-.47.97-.48 1.58-.17-.77.08-1.17.28-1.68.34-.78.17-1.2-.11-1.91a2.2 2.2 0 01.02-.77c.16-1.04.38-2 .64-3.06z"/>
        <path d="M107 112c-.1 1.1-.6 2.08-1.57 2.66.54-.84 1.07-1.74 1.57-2.66z"/>
        <path d="M108 85.2c-.19.1-.42.1-.62.05-.36-.1-.66-.32-.98-.5a8.47 8.47 0 01-1.37-1.1c.32.13.64.3.94.47.4.24.78.51 1.16.78.23.16.5.32.79.31l.08-.01z"/>
        <path d="M114 109c-.86.33-1.5.96-2.07 1.71.22-1.08.72-1.7 2.07-1.71z"/>
        <path d="M107 125c-.85.28-1.52.88-2.14 1.54.3-1.06 1-1.55 2.14-1.54z"/>
        <path d="M102 123c-.25.24-.6.4-.77.71-.08.2-.02.43-.07.64-.07.3-.31.52-.54.7-.18.17-.37.33-.5.55-.34.5-.52 1.09-.73 1.65l-.07.18c.03-.36.09-.71.17-1.06a2.9 2.9 0 01.79-1.4c.2-.2.5-.35.6-.64.06-.27.02-.6.25-.81.24-.25.57-.36.87-.52z"/>
        <path d="M96.3 81.8c-1.65-1-3.67-1.3-5.64-1.59 2.02-.21 4.13.04 5.64 1.59z"/>
      </g>
    </g>
    <g id="gear" stroke-width=".6" transform="translate(60.5 60.5) scale(1.85)" author="Jean-Paul GIBERT" source="https://commons.wikimedia.org/wiki/File:Meuble_h%C3%A9raldique_Roue_dent%C3%A9e_de_12_pi%C3%A8ces.svg" license="https://creativecommons.org/licenses/by/4.0">
      <path d="M18.47.4l.43 3.2-4.43 1.2-1.24-3-4.82 2.78 1.98 2.57-3.24 3.24L4.58 8.4 1.8 13.23l3 1.24-1.2 4.42-3.2-.42v5.56l3.2-.42 1.2 4.42-3 1.24 2.78 4.82 2.57-1.98 3.24 3.24-1.98 2.57 4.82 2.78 1.24-2.99 4.43 1.19-.43 3.2h5.56l-.42-3.2 4.42-1.19 1.24 3 4.82-2.8-1.98-2.56 3.24-3.24 2.57 1.98 2.78-4.82-2.99-1.24 1.19-4.42 3.2.42v-5.56l-3.2.42-1.19-4.42 3-1.24-2.8-4.82-2.56 1.98-3.24-3.24 1.98-2.57-4.82-2.78-1.24 3-4.42-1.2.42-3.2zm2.78 9.84a11.01 11.01 0 0111.01 11.01 11.01 11.01 0 01-11 11.01 11.01 11.01 0 01-11.02-11 11.01 11.01 0 0111.01-11.02z"/>
    </g>
    <style xmlns="http://www.w3.org/1999/xhtml" type="text/css"></style>
  </defs>
  <g clip-path="url(#shield_532222558)">
    <rect class="field" x="0" y="0" width="200" height="200" fill="#002366"/>
    <g class="division" clip-path="url(#division_532222558)">
      <rect x="0" y="0" width="200" height="200" fill="#fafafa"/>
    </g>
    <rect class="diaper" x="0" y="0" width="200" height="200" fill="url(#nourse)" style="pointer-events: none;"/>
    <g class="charge" i="1" charge="hourglass" fill="#ffd700" stroke="none" style="--secondary: #ffd700; --tertiary: #002366; --stroke: none; --background: block;">
      <use xlink:href="#hourglass" transform="translate(64 64) scale(0.36)"/>
    </g>
    <g class="charge" i="2" charge="attire" fill="#fafafa" transform="translate(20 -48)" stroke="#000" style="--secondary: #fafafa; --tertiary: #fafafa; --stroke: #000; --background: block;">
      <use xlink:href="#attire" transform="translate(49 49) scale(0.51)"/>
    </g>
    <g class="charge" i="3" charge="attire" fill="#fafafa" transform="translate(-20 -48)" stroke="#000" style="--secondary: #fafafa; --tertiary: #fafafa; --stroke: #000; --background: block;">
      <use xlink:href="#attire" transform="translate(151 49) scale(-0.51 0.51)"/>
    </g>
  </g>
  <path class="grad" d="M 100,12 176.2,56 176.2,144 100,188 23.8,144 23.8,56 Z" fill="url(#luster)" stroke="#333333" stroke-width="1" style="pointer-events: none;"/>
  <g class="charge" i="0" charge="gear" fill="#ffd700" stroke="none" style="--secondary: #ffd700; --tertiary: #ffd700; --stroke: none; --background: block;">
    <use xlink:href="#gear" transform="translate(5 5) scale(0.95)"/>
  </g>
</svg>