<svg xmlns="http://www.w3.org/2000/svg" xmlns:xlink="http://www.w3.org/1999/xlink" xmlns:dc="http://purl.org/dc/elements/1.1/" xmlns:rdf="http://www.w3.org/1999/02/22-rdf-syntax-ns#" width="2342" height="2342" viewBox="0 0 200 200">
  <defs>
    <clipPath id="shield_729191304">
      <path d="M 100,12 176.2,56 176.2,144 100,188 23.8,144 23.8,56 Z"/>
    </clipPath>
    <clipPath id="division_729191304">
      <path d="m 0,115 v -30 c 0,0 60,20.2 100,20 40,-0.2 100,-20 100,-20 v 30 V200 H0 Z" transform="translate(161.66 10) rotate(66.66 -100 100) scale(-1 1)"/>
      <path d="m 0,115 v -30 c 0,0 60,20.2 100,20 40,-0.2 100,-20 100,-20 v 30 V200 H0 Z" transform="translate(38.33 10) rotate(-66.66 100 100)"/>
    </clipPath>
    <style>.secondary {
      fill: var(--secondary);
    }
    .tertiary {
      fill: var(--tertiary);
    }
    .pseudostroke {
      fill: var(--stroke);
    }
    .background {
      display: var(--background);
    }</style>
    <linearGradient id="luster" x1="0%" y1="100%" x2="95%" y2="10%">
      <stop stop-color="#000" stop-opacity=".3" offset="0"/>
      <stop stop-color="#ccc" stop-opacity="0" offset=".8"/>
      <stop stop-color="#fff" stop-opacity=".2" offset="1"/>
    </linearGradient>
    <pattern id="nourse" width=".25" height=".25" viewBox="0 0 26 26">
      <g fill="none" stroke="#000" stroke-width="1" opacity=".06">
        <path d="M26 1h-.2A25 25 0 001 26M25.2 26A25 25 0 000 1"/>
        <path d="M1 0v.2a25 25 0 0025 25"/>
        <path d="M0 25.2h.2A25 25 0 0025.2 0"/>
        <path stroke-width=".4" d="M10.5 10.6h5v5h-5z"/>
        <path stroke-width=".5" d="M11 10c0-3.2 4.1-3.2 4 0M15 16.2c0 3.4-4 3.3-4 0M16.2 11c3.2.2 3.1 4.3 0 4.1M9.9 15.1c-3.3 0-3.3-4 0-4"/>
        <g fill="#000" stroke="none">
          <circle cx="21.9" cy="19.7" r="1"/>
          <circle cx="20" cy="20.7" r="1"/>
          <circle cx="21.9" cy="21.9" r="1"/>
          <circle cx="5" cy="7.2" r="1"/>
          <circle cx="6.9" cy="6.1" r="1"/>
          <circle cx="5" cy="5" r="1"/>
          <circle cx="21.9" cy="4.9" r="1"/>
          <circle cx="20" cy="6" r="1"/>
          <circle cx="21.9" cy="7.1" r="1"/>
          <circle cx="4.9" cy="22" r="1"/>
          <circle cx="6.9" cy="20.9" r="1"/>
          <circle cx="4.9" cy="19.8" r="1"/>
          <circle cx="12" cy="14.2" r=".9"/>
          <circle cx="14.1" cy="14.2" r=".9"/>
          <circle cx="12" cy="12" r=".9"/>
          <circle cx="14.1" cy="12" r=".9"/>
          <circle cx="1.8" cy="13.1" r=".8"/>
          <circle cx=".9" cy="14.6" r=".8"/>
          <circle cx=".9" cy="11.6" r=".8"/>
          <circle cx="24.3" cy="13.1" r=".8"/>
          <circle cx="25.2" cy="14.6" r=".8"/>
          <circle cx="25.2" cy="11.6" r=".8"/>
          <circle cx="13" cy="24.3" r=".8"/>
          <circle cx="14.6" cy="25.1" r=".8"/>
          <circle cx="11.5" cy="25.1" r=".8"/>
          <circle cx="13" cy="1.8" r=".8"/>
          <circle cx="11.4" cy="1" r=".8"/>
          <circle cx="14.6" cy="1" r=".8"/>
        </g>
      </g>
    </pattern>
    <g id="attire" stroke-width=".3" source="http://wappenwiki.org/images/9/9d/Regenstein_Ancient.svg" license="https://creativecommons.org/licenses/by-nc-sa/3.0">
      <path d="M91.4 134c-.53.07-1.3-.71-1.46-1.22a2.3 2.3 0 01.13-1.57c.2-.5.66-.97 1.15-1.16 1.3-.51 2.09.16 2.42.14 0 0 2.13-.57 3.49-3.6.59-1.3 4.23-6.22 5.35-8.03 2.65-4.28 4.55-12.2 4.75-13 .99-8.35-.31-11-3.3-15.5-.3-.5-1.05-1.18-2.93-3.34-.71-.81-3.7-3.4-5.66-4.11-3.36-1.54-3.72-.25-7.45-.37-4.5-.15-9.65-7.8-12.4-8.9-1.35-.55-2.94-.66-5.16.1-.44.16-.06-1.68 2.54-2.58 1.97-.68 4.03-.7 5.25-.25 2.5.9 4.83 4.16 8.09 5.66 1.73.8 4.44 1.1 6 .29 2.32-1.21 2.3-2.57 2.29-3.51-.18-3.03-4.72-4.24-4.65-8.85.03-1.62.82-3.22 1.48-3.71.46-.52.82-.43.85.23-.11 6.27 6.25 6.86 7.17 11.1.54 2.49.39 3.53.38 3.99.1.92 1.5 2.69 3.6 4.46 2.36 1.98 3.26 3.3 4.58 3.82 1.28.44 3.65-1.18 4.1-2.37 1.27-3.25-.78-6.7.93-11.1a8.05 8.05 0 014.6-4.43c.7-.23.82.34.49.79-.32.45-3.03 2.14-1.84 7.59.5 2.35 1.35 6.26.09 9.52-1.52 3.93-3.43 3.36-4.23 6.76-.1.83 2.2 5.87 1.84 8.5-.23 1.73-.15 4.19 1.49 4.44 2.77.4 5.15-2.1 6.03-4.52 1.05-2.87 1.77-5.95 4-7.75a7.33 7.33 0 013.88-1.75c.77-.06.68.38.42.65-.18.19-1.61 1.2-2.66 3.23-1.18 2.26-1.21 5.2-1.7 8.45-.88 4.78-5.3 7.47-7.77 7.86-2.18.34-4.08-.17-4.77 1.45a91 91 0 01-2.66 6.84c-.82 1.67.94 3.77 2.8 4.4 3.37 1.4 5.38-1.52 6.67-2.44 3.22-2.27 7.65-2.97 9.58-1.13 1.34 1.4.05 1.2-.42 1.17-4.25-.4-6.21 3.9-10.5 6.5a10 10 0 01-8.3.77c-1.22-.42-1.65-1.12-2.92-1.2-1.13-.05-1.83.9-3.1 2.55-1.34 1.73-2.91 3.66-3.38 4.3-.44.62-.81 1.3-1.06 2.02a.81.81 0 00-.07.4c.02.13.09.24.16.36.23.39.38.83.44 1.27.13.9-.11 1.89-.77 2.52-.66.63-1.61.8-2.41.36-1.01-.56-1.28-1.37-1.4-1.41 0 0-1.7-.31-2.53-1.04-1.3-1.01-1.97-2.22-1.54-3.65z"/>
      <g class="pseudostroke" stroke="none" fill="#000">
        <path d="M99.86 75.8c-.12.85-.4 1.74-.65 2.43.24-.86.32-1.68.38-2.45z"/>
        <path d="M94.3 133c-.86-.4-2.3.02-2.88 1.27l-.26-.13c.76-1.37 2.12-1.66 3.14-1.14-.01-.01 0 0 0 0z"/>
        <path d="M97.6 135c.82.88.7 2.13.02 2.99.32-.99.33-1.98-.02-2.99z"/>
        <path d="M111 99.3a37.6 37.6 0 01-.35 3.13c-.03.23-.05.46-.01.67.02.1.06.2.1.31.33.62.16 1.09-.09 1.73-.11.26-.47.97-.48 1.58-.17-.77.08-1.17.28-1.68.34-.78.17-1.2-.11-1.91a2.2 2.2 0 01.02-.77c.16-1.04.38-2 .64-3.06z"/>
        <path d="M107 112c-.1 1.1-.6 2.08-1.57 2.66.54-.84 1.07-1.74 1.57-2.66z"/>
        <path d="M108 85.2c-.19.1-.42.1-.62.05-.36-.1-.66-.32-.98-.5a8.47 8.47 0 01-1.37-1.1c.32.13.64.3.94.47.4.24.78.51 1.16.78.23.16.5.32.79.31l.08-.01z"/>
        <path d="M114 109c-.86.33-1.5.96-2.07 1.71.22-1.08.72-1.7 2.07-1.71z"/>
        <path d="M107 125c-.85.28-1.52.88-2.14 1.54.3-1.06 1-1.55 2.14-1.54z"/>
        <path d="M102 123c-.25.24-.6.4-.77.71-.08.2-.02.43-.07.64-.07.3-.31.52-.54.7-.18.17-.37.33-.5.55-.34.5-.52 1.09-.73 1.65l-.07.18c.03-.36.09-.71.17-1.06a2.9 2.9 0 01.79-1.4c.2-.2.5-.35.6-.64.06-.27.02-.6.25-.81.24-.25.57-.36.87-.52z"/>
        <path d="M96.3 81.8c-1.65-1-3.67-1.3-5.64-1.59 2.02-.21 4.13.04 5.64 1.59z"/>
      </g>
    </g>
    <g id="gear" stroke-width=".6" transform="translate(60.5 60.5) scale(1.85)" author="Jean-Paul GIBERT" source="https://commons.wikimedia.org/wiki/File:Meuble_h%C3%A9raldique_Roue_dent%C3%A9e_de_12_pi%C3%A8ces.svg" license="https://creativecommons.org/licenses/by/4.0">
      <path d="M18.47.4l.43 3.2-4.43 1.2-1.24-3-4.82 2.78 1.98 2.57-3.24 3.24L4.58 8.4 1.8 13.23l3 1.24-1.2 4.42-3.2-.42v5.56l3.2-.42 1.2 4.42-3 1.24 2.78 4.82 2.57-1.98 3.24 3.24-1.98 2.57 4.82 2.78 1.24-2.99 4.43 1.19-.43 3.2h5.56l-.42-3.2 4.42-1.19 1.24 3 4.82-2.8-1.98-2.56 3.24-3.24 2.57 1.98 2.78-4.82-2.99-1.24 1.19-4.42 3.2.42v-5.56l-3.2.42-1.19-4.42 3-1.24-2.8-4.82-2.56 1.98-3.24-3.24 1.98-2.57-4.82-2.78-1.24 3-4.42-1.2.42-3.2zm2.78 9.84a11.01 11.01 0 0111.01 11.01 11.01 11.01 0 01-11 11.01 11.01 11.01 0 01-11.02-11 11.01 11.01 0 0111.01-11.02z"/>
    </g>
    <g transform="matrix(0.2214 0 0 0.2194 46.3831 48.1736)" id="watchcog" license="Unknown">
      <path d="m 230.2,61.5 c -4.6,0.7 -8.6,1.5 -8.8,1.8 -0.3,0.2 0,3.3 0.6,6.8 0.6,3.5 1.2,7.2 1.3,8.3 0.2,1.5 -1.2,2.3 -8.3,4.2 -4.7,1.3 -9,2.3 -9.6,2.4 -0.6,0 -2.1,-3.4 -3.4,-7.6 -2.7,-8.6 -1.1,-8.2 -15.7,-3.8 -4.6,1.4 -8.3,3.1 -8.3,3.7 0,0.7 1.1,4.3 2.5,8.2 1.3,3.8 2.5,7.5 2.5,8.2 0,0.9 -14.2,10.3 -15.6,10.3 -0.3,0 -3.4,-3.2 -7,-7 -3.7,-3.9 -6.9,-7 -7.3,-7 -0.3,0 -4.3,3.2 -8.9,7.1 l -8.3,7.1 6.7,7.5 6.7,7.4 -6.8,6.9 -6.8,6.8 -6.7,-5.4 c -3.7,-3 -6.9,-5.4 -7.2,-5.4 -1.2,0 -14.9,17.3 -14.2,17.9 0.5,0.4 3.9,3.1 7.7,6 3.7,2.9 6.7,5.5 6.7,5.7 0,0.4 -7.9,15.3 -8.6,16.3 -0.2,0.2 -4,-0.8 -8.4,-2.3 -4.5,-1.4 -8.5,-2.6 -9,-2.6 -1.2,0 -8.3,20.1 -7.3,21 0.4,0.4 4,1.8 7.8,3 3.9,1.2 7.3,2.5 7.6,2.9 0.7,0.6 -3.1,17.5 -4.1,18.4 -0.3,0.3 -4.1,-0.1 -8.4,-0.9 -4.4,-0.7 -8.1,-1.2 -8.3,-1 -0.5,0.5 -4.3,18 -4.3,20.2 0,1.7 1,2.2 7.8,3.3 11.5,1.8 11.2,1.7 11.2,6.2 v 3.9 h 43 v -5.8 c 0.1,-22.7 9,-48.1 23.7,-67.4 4.5,-5.9 16.7,-18.4 19.4,-19.8 1.3,-0.7 4,2.8 14.4,18.7 8.5,13.1 12.5,20 11.9,20.8 -0.5,0.7 -2.9,3.6 -5.2,6.6 -5.4,6.5 -9.3,14.2 -12.3,23.9 -2,6.2 -2.4,9.7 -2.3,20 0,6.9 0.5,14.3 1.2,16.5 0.9,3 0.9,4.1 -0.1,4.7 -0.6,0.4 -29.9,10.3 -64.9,22 C 91.7,291.9 63,301.7 63,302 c 0,0.3 29.3,-9.2 65.2,-21.2 35.8,-12 65.2,-21.7 65.3,-21.5 0.1,0.1 0.9,2.3 1.8,4.8 1,2.5 3.3,7 5.2,10 6.7,10.6 8.5,7 -16.1,32.3 -20.6,21.3 -22.6,23 -33.5,29.6 l -11.5,7 -2.3,12.3 c -1.3,6.7 -2.8,13 -3.3,13.9 -0.5,1 -0.5,1.8 -0.1,1.8 0.4,0 6.7,-3.1 13.8,-6.9 l 13,-6.9 4.5,-9.5 c 4.4,-9.3 5.1,-10.1 27.2,-32.7 l 22.8,-23.2 3.2,2.2 c 6.8,4.5 17.5,9.1 25,10.7 7,1.5 7.8,1.9 7.8,4 0,1.3 -0.3,2.3 -0.7,2.3 -3,-0.2 -15.2,-2 -16.6,-2.6 -1.5,-0.5 -1.7,0.2 -1.7,7.9 0,7.6 0.2,8.6 1.9,9.2 1.6,0.5 1.9,1.2 1.3,4.3 -1.2,7.2 -1,7.6 3.3,8.3 2.2,0.4 4.3,0.5 4.6,0.3 0.4,-0.2 0.9,-2.6 1.3,-5.4 0.6,-4.5 0.9,-5 3.1,-5 2.4,0 2.5,0.3 2.5,5.5 v 5.5 h 10 v -5.5 c 0,-5 0.2,-5.5 2.5,-6.1 3.9,-1 5.2,0.1 5.9,5 0.7,4.4 0.9,4.6 3.9,4.6 5.1,0 5.7,-0.9 4.5,-6.4 -1,-5 -0.6,-6.2 2.5,-6.8 1.4,-0.2 2.3,0.9 3.7,4.6 1.1,2.6 2.1,5 2.3,5.2 0.4,0.4 7.7,-2.4 7.7,-3 0,-0.1 -0.9,-2.8 -1.9,-5.9 -1.4,-4 -1.6,-5.7 -0.8,-6 1.4,-0.5 -4,-11.6 -5.9,-12.4 -0.7,-0.2 -4.3,0.5 -8,1.6 -3.8,1 -8.4,2.2 -10.1,2.5 -3.1,0.5 -3.3,0.4 -3.3,-2.2 0,-2.6 0.4,-2.9 5.8,-4 3.1,-0.7 8.1,-2.3 11,-3.7 l 5.2,-2.4 12.6,19.1 c 6.9,10.5 12.1,19.4 11.7,19.9 -1.5,1.5 -17.1,7.7 -24.5,9.8 -4,1.1 -9.9,2.3 -13,2.7 l -5.8,0.7 v 47.3 l 6.3,-0.7 c 3.4,-0.4 8.5,-1 11.3,-1.4 l 5,-0.7 1.4,7 c 0.7,3.9 1.6,7.5 1.9,8 1,1.6 22.1,-2.7 22.1,-4.5 0,-0.8 -0.7,-4.5 -1.6,-8.4 -0.9,-3.8 -1.4,-7.4 -1.2,-8 0.2,-0.6 4,-2.8 8.5,-4.9 l 8.2,-3.8 5.7,7.9 c 3.2,4.3 6.1,7.9 6.6,7.9 0.6,0 5,-2.8 9.9,-6.2 l 8.8,-6.1 -3.6,-5.1 c -2.1,-2.8 -4.6,-6.3 -5.7,-7.8 -1.1,-1.5 -1.8,-2.9 -1.5,-3.1 0.2,-0.2 3.5,-3 7.3,-6.2 l 6.8,-5.7 6.3,6.2 6.4,6.3 8,-7.3 c 4.5,-4 8.1,-7.8 8.1,-8.4 0,-0.6 -2.9,-4 -6.5,-7.6 l -6.5,-6.5 5.1,-7 c 2.8,-3.9 5.4,-7.3 5.8,-7.8 0.4,-0.4 4,0.9 7.9,2.8 4,1.9 7.8,3.5 8.5,3.5 1,0 10.7,-17.7 10.7,-19.4 0,-0.2 -3.6,-2.1 -8,-4.2 -4.4,-2 -8,-4 -8,-4.3 0,-0.3 1.3,-4 2.9,-8.1 1.6,-4.1 3.1,-8.7 3.5,-10.3 L 407,281 h -47 l -1.5,3.6 c -2.1,5.1 -8.1,14.9 -13.2,21.6 -4.6,6 -17.1,18.8 -18.5,18.8 -0.7,0 -25.8,-37.5 -25.8,-38.6 0,-0.2 1.9,-2.8 4.1,-5.7 7.1,-8.8 12.3,-21.6 14.4,-35 0.6,-3.6 0.7,-3.7 5,-3.7 4,0 4.5,0.2 4.5,2.3 0,7.6 -7.3,27.4 -12.6,34.4 l -2.5,3.3 h 5.6 c 4.2,0 7,0.7 11.6,3 3.3,1.7 6.4,2.8 6.8,2.6 1,-0.7 3.5,-6.5 3,-7 -0.2,-0.1 -2.5,-1.5 -5.2,-3 -4.1,-2.3 -4.6,-2.9 -3.7,-4.6 1.3,-2.4 1.6,-2.4 7,-0.5 5.6,2 5.6,2 6.9,-1.6 1.6,-4.6 1.6,-4.6 -3.9,-6.4 -5.7,-1.9 -6.4,-2.7 -5.6,-6.1 0.7,-2.5 0.8,-2.5 7,-1.9 3.5,0.4 6.6,0.3 6.9,-0.1 0.3,-0.5 0.7,-2.5 0.9,-4.4 l 0.3,-3.5 -6,-1 c -5.1,-0.9 -6.1,-1.4 -6.3,-3.3 -0.3,-2.1 0,-2.2 6.2,-2.2 h 6.6 v -9 h -13 v -3.4 c 0,-3.8 0.3,-4 7.8,-5.1 l 4.4,-0.7 -0.7,-3.7 c -0.4,-2 -1,-3.9 -1.3,-4.3 -0.4,-0.3 -3.1,-0.2 -6,0.4 -4.4,0.9 -5.6,0.8 -6.3,-0.3 -1.5,-2.3 -1,-3.7 1.4,-4.3 1.3,-0.3 3.9,-1.2 5.9,-2.1 l 3.7,-1.5 -1.6,-3.9 -1.5,-3.9 -5.6,1.9 c -3,1 -5.6,1.8 -5.7,1.7 -0.5,-1.1 -2.5,-6 -2.5,-6.3 0,-0.2 2.5,-1.8 5.5,-3.5 3,-1.7 5.7,-3.5 6,-4 0.8,-1.3 -2.3,-7 -3.8,-7 -0.6,0.1 -3.4,1.6 -6.2,3.5 -4.9,3.4 -5,3.4 -6.5,1.5 -1.5,-1.9 -1.6,-1.8 -5.7,1.6 l -4.2,3.5 3.9,7.2 c 6.5,12.2 11.3,31.7 7.8,31.7 -0.9,0 -2.9,0.3 -4.6,0.6 -3,0.6 -3.1,0.5 -3.7,-4.2 -1.1,-8.2 -4.5,-18.5 -8.5,-26.1 l -3.8,-7.1 39.4,-32.9 39.4,-32.8 5.8,0.3 c 3.1,0.2 6.4,0.5 7.2,0.7 1,0.3 4.6,-4.6 11.8,-16.5 5.6,-9.3 10.2,-17.5 10.2,-18.1 0,-1.3 1.4,-1.6 -21.3,5.1 l -18.6,5.5 -0.6,5.5 c -1.7,15.6 2.6,10.7 -39.9,46.2 l -38,31.6 -6,-5.4 c -6.9,-6.2 -18.8,-12.6 -27.1,-14.5 -5.3,-1.2 -5.5,-1.3 -5.5,-4.6 0,-3.7 -0.4,-3.6 9,-1.2 1.9,0.5 3.8,0.9 4.3,0.9 0.4,0 0.7,-3.6 0.7,-8.1 0,-7.4 -0.2,-8.1 -2.1,-8.6 -1.9,-0.5 -2,-1.1 -1.4,-5.8 l 0.6,-5.3 -4.1,-0.7 c -2.3,-0.4 -4.3,-0.5 -4.6,-0.2 -0.2,0.2 -0.8,2.4 -1.2,4.8 -0.4,2.5 -1.3,4.4 -2,4.3 -0.6,-0.1 -1.9,-0.2 -2.7,-0.3 -1.1,-0.1 -1.5,-1.4 -1.5,-5.1 v -5 h -9 v 5 c 0,4.1 -0.3,5 -1.7,5 -1,0 -2.8,0.3 -4,0.6 -2,0.5 -2.3,0.1 -2.9,-3.4 -0.9,-5.6 -1.4,-6.2 -5.4,-5.3 -3.5,0.7 -3.5,0.7 -3.2,5.8 0.2,4.5 0,5.1 -2,5.7 -3.5,0.9 -3.5,0.9 -4.8,-3.9 -0.7,-2.5 -1.9,-4.5 -2.6,-4.5 -1,0 -5.3,1.5 -7.2,2.5 -0.1,0.1 0.5,1.9 1.3,3.9 0.9,2.1 1.5,4.5 1.3,5.4 -0.1,1 1.7,4.7 4,8.3 l 4.3,6.7 5.7,-1.8 c 3.1,-1 7.6,-2.1 10,-2.5 l 4.3,-0.7 -0.3,3.2 c -0.3,3.1 -0.6,3.3 -8.3,5.7 -4.4,1.3 -8.7,2.6 -9.6,2.9 -1.2,0.4 -4.5,-3.8 -12.9,-16.8 -6.2,-9.5 -11.9,-18.3 -12.7,-19.5 -1.4,-2.2 -1.3,-2.3 4.4,-4.8 13.5,-6.1 32.1,-10.5 44.1,-10.5 H 256 V 77 h -9.7 l -1.2,-8.5 c -1.5,-9.8 -0.3,-9.3 -14.9,-7 z m 39.9,136.1 c 29.4,11.5 37.2,47.7 14.9,69.4 -24.2,23.5 -65.6,10 -71.3,-23.4 -3.6,-21.1 10.6,-42.1 32.1,-47.6 5.3,-1.3 19.1,-0.4 24.3,1.6 z" id="path1-0"/>
      <path d="m 249,213.9 c -11.4,3.7 -17.4,11.9 -17.4,23.6 0,10.7 4.7,18 14.4,22.4 11.4,5.2 25.2,0.1 31.3,-11.4 2.8,-5.3 3,-16.4 0.3,-21.5 -2.6,-4.9 -6.4,-8.8 -11,-11.2 -4.3,-2.2 -13.6,-3.2 -17.6,-1.9 z m 63.1,-52.2 -4,4.7 -2.6,-2.4 c -1.3,-1.3 -2.7,-2.2 -2.9,-1.9 -0.2,0.2 -1.6,3 -3.1,6.3 l -2.8,5.8 4.4,3.9 c 2.4,2.1 4.7,3.8 5,3.9 0.3,0 2.6,-1.6 5.2,-3.6 2.8,-2.2 4.4,-4.1 4,-5 -0.3,-0.8 1.1,-3.4 3.1,-5.8 2,-2.5 3.6,-4.8 3.6,-5.3 0,-0.5 -1.3,-1.9 -2.9,-3.1 l -3,-2.2 z m -125.5,2.6 c -1.7,1.3 -1.7,1.6 1.5,5.1 2.5,2.9 3,4.2 2.3,5.4 -1.7,2.6 -3,2.5 -6.7,-0.7 l -3.4,-3 -2.6,2.7 c -2.6,2.7 -3.5,5.2 -1.9,5.2 0.4,0 2.2,1.4 3.9,3 l 3.3,2.9 -2.1,3.6 -2.1,3.5 -4.5,-2.5 c -2.5,-1.4 -4.9,-2.5 -5.4,-2.5 -0.9,0 -3.9,5.2 -3.9,6.8 0,0.4 2.2,1.9 5,3.3 4,2 4.8,2.8 4.3,4.4 -0.8,3 -0.9,3 -6.7,1.2 -6.6,-2.1 -6.3,-2.2 -7,0.7 -0.3,1.3 -0.8,3.1 -1.1,3.9 -0.4,1 1.1,2 5.5,3.6 4.6,1.7 6,2.6 5.6,3.8 -0.3,0.8 -0.6,2.1 -0.6,3 0,1.3 -1.1,1.4 -7,0.8 -5.8,-0.6 -7,-0.5 -7,0.8 0,0.8 -0.3,2.8 -0.6,4.4 -0.6,3 -0.5,3.1 4.3,3.7 7.1,1 8.3,1.5 8.3,3.6 0,1.7 -0.9,1.9 -6.7,2.2 l -6.8,0.3 -0.3,4.1 c -0.3,4.8 0.3,5.2 8.5,4.9 l 5.2,-0.2 0.6,4.6 c 1,7.2 0.9,7.1 7.4,7.1 h 5.9 l -0.9,-3.8 c -1.6,-6.9 -1,-23.3 1.1,-31.8 2.9,-11.5 8.8,-22.8 16.1,-30.7 l 6.1,-6.7 -4.2,-5.8 C 195.3,169 190,163 189,163 c -0.3,0 -1.4,0.6 -2.4,1.3 z" id="path2-9"/>
    </g>
    <style xmlns="http://www.w3.org/1999/xhtml" type="text/css"></style>
  </defs>
  <g clip-path="url(#shield_729191304)">
    <rect class="field" x="0" y="0" width="200" height="200" fill="#002366"/>
    <g class="division" clip-path="url(#division_729191304)">
      <rect x="0" y="0" width="200" height="200" fill="#fafafa"/>
    </g>
    <rect class="diaper" x="0" y="0" width="200" height="200" fill="url(#nourse)" style="pointer-events: none;"/>
    <g class="charge" i="0" charge="attire" fill="#fafafa" transform="translate(20 -48)" stroke="#002366" style="--secondary: #fafafa; --tertiary: #fafafa; --stroke: #002366; --background: block;">
      <use xlink:href="#attire" transform="translate(50 50) scale(0.5)"/>
    </g>
    <g class="charge" i="1" charge="attire" fill="#fafafa" transform="translate(-20 -48)" stroke="#002366" style="--secondary: #fafafa; --tertiary: #fafafa; --stroke: #002366; --background: block;">
      <use xlink:href="#attire" transform="translate(150 50) scale(-0.5 0.5)"/>
    </g>
    <g class="charge" i="2" charge="gear" fill="#ffd700" stroke="none" style="--secondary: #ffd700; --tertiary: #ffd700; --stroke: none; --background: block;">
      <use xlink:href="#gear" transform="translate(195 5) scale(-0.95 0.95)"/>
    </g>
    <g class="charge" i="3" charge="watchcog" fill="#fafafa" transform="translate(-1 0)" stroke="none" style="--secondary: #fafafa; --tertiary: #fafafa; --stroke: none; --background: block;">
      <use xlink:href="#watchcog" transform="translate(62 62) scale(0.38)"/>
    </g>
  </g>
  <path class="grad" d="M 100,12 176.2,56 176.2,144 100,188 23.8,144 23.8,56 Z" fill="url(#luster)" stroke="#333333" stroke-width="1" style="pointer-events: none;"/>
</svg>